<?xml version="1.0" encoding="iso-8859-1"?>
<!-- Generator: Adobe Illustrator 19.0.0, SVG Export Plug-In . SVG Version: 6.00 Build 0)  -->
<svg version="1.1" id="Capa_1" xmlns="http://www.w3.org/2000/svg" xmlns:xlink="http://www.w3.org/1999/xlink" x="0px" y="0px"
	 viewBox="0 0 512 512" style="enable-background:new 0 0 512 512;" xml:space="preserve">
<path style="fill:#FD4E26;" d="M225,240H15c-8.291,0-15-6.709-15-15V15C0,6.709,6.709,0,15,0h210c8.291,0,15,6.709,15,15v210
	C240,233.291,233.291,240,225,240z M30,210h180V30H30V210z"/>
<g>
	<path style="fill:#FD3018;" d="M497,240H287c-8.291,0-15-6.709-15-15V15c0-8.291,6.709-15,15-15h210c8.291,0,15,6.709,15,15v210
		C512,233.291,505.291,240,497,240z M302,210h180V30H302V210z"/>
	<path style="fill:#FD3018;" d="M437,180h-90c-8.291,0-15-6.709-15-15V75c0-8.291,6.709-15,15-15h90c8.291,0,15,6.709,15,15v90
		C452,173.291,445.291,180,437,180z"/>
</g>
<g>
	<path style="fill:#FD4E26;" d="M165,180H75c-8.291,0-15-6.709-15-15V75c0-8.291,6.709-15,15-15h90c8.291,0,15,6.709,15,15v90
		C180,173.291,173.291,180,165,180z"/>
	<path style="fill:#FD4E26;" d="M165,452H75c-8.291,0-15-6.709-15-15v-90c0-8.291,6.709-15,15-15h90c8.291,0,15,6.709,15,15v90
		C180,445.291,173.291,452,165,452z"/>
	<path style="fill:#FD4E26;" d="M225,512H15c-8.291,0-15-6.709-15-15V287c0-8.291,6.709-15,15-15h210c8.291,0,15,6.709,15,15v210
		C240,505.291,233.291,512,225,512z M30,482h180V302H30V482z"/>
</g>
<g>
	<path style="fill:#FD3018;" d="M287,392c-8.291,0-15-6.709-15-15v-90c0-8.291,6.709-15,15-15h90c8.291,0,15,6.709,15,15v30
		c0,8.291-6.709,15-15,15s-15-6.709-15-15v-15h-60v75C302,385.291,295.291,392,287,392z"/>
	<path style="fill:#FD3018;" d="M497,512h-30c-8.291,0-15-6.709-15-15s6.709-15,15-15h30c8.291,0,15,6.709,15,15
		S505.291,512,497,512z"/>
	<path style="fill:#FD3018;" d="M497,362c-8.291,0-15,6.709-15,15v45h-75c-8.291,0-15,6.709-15,15v45h-90v-45
		c0-8.291-6.709-15-15-15s-15,6.709-15,15v60c0,8.291,6.709,15,15,15h120c8.291,0,15-6.709,15-15v-45h75c8.291,0,15-6.709,15-15v-60
		C512,368.709,505.291,362,497,362z"/>
	<path style="fill:#FD3018;" d="M497,272h-60c-8.291,0-15,6.709-15,15v75h-75c-8.291,0-15,6.709-15,15v60c0,8.291,6.709,15,15,15
		s15-6.709,15-15v-45h75c8.291,0,15-6.709,15-15v-75h45c8.291,0,15-6.709,15-15S505.291,272,497,272z"/>
</g>
<g>
</g>
<g>
</g>
<g>
</g>
<g>
</g>
<g>
</g>
<g>
</g>
<g>
</g>
<g>
</g>
<g>
</g>
<g>
</g>
<g>
</g>
<g>
</g>
<g>
</g>
<g>
</g>
<g>
</g>
</svg>
